#!OML:ASF F:\twosubjects\two\Thursday\Session 1\justin.ASF
:FULLY-SPECIFIED
:DEGREES
241
root 7.39529 9.20623 -21.7592 -31.6477 -2.67267 0.780369
lowerback 35.1599 2.15371 -1.11078
upperback 13.8545 2.38227 1.0591
thorax -2.58595 1.08299 0.914135
lowerneck -21.8691 -3.59132 -8.87181
upperneck 4.08714 -3.10312 7.11004
head 4.93792 -1.17331 3.36477
rclavicle 1.24737e-014 -5.96354e-016
rhumerus 9.69936 31.1203 -78.5604
rradius 60.701
rwrist 10.3757
rhand 8.48015 10.8861
rfingers 7.12502
rthumb 33.6834 -15.9674
lclavicle 1.24737e-014 -5.96354e-016
lhumerus 13.8458 -35.7362 79.2313
lradius 56.0263
lwrist -40.7187
lhand 10.0175 37.8422
lfingers 7.12502
lthumb 35.143 64.3648
rfemur -61.3155 -18.2206 6.14804
rtibia 85.5997
rfoot 7.34979 6.58122
rtoes -7.12745
lfemur -60.2692 16.8188 -3.32672
ltibia 87.8678
lfoot 3.1349 -17.2925
ltoes -5.70968
242
root 7.39562 9.20497 -21.7743 -31.7801 -2.55174 0.832622
lowerback 35.0086 2.20397 -1.2974
upperback 13.9846 2.39156 1.10616
thorax -2.40112 1.07766 1.06405
lowerneck -21.5419 -3.59291 -8.68214
upperneck 3.66113 -3.14268 6.86319
head 4.74895 -1.21088 3.25072
rclavicle -8.15017e-015 1.98785e-015
rhumerus 9.56536 30.8117 -78.6461
rradius 60.7944
rwrist 10.5221
rhand 11.069 11.9828
rfingers 7.12502
rthumb 36.1395 -14.2993
lclavicle -8.15017e-015 1.98785e-015
lhumerus 13.9546 -35.5657 79.2915
lradius 55.733
lwrist -41.4522
lhand 11.6822 37.8653
lfingers 7.12502
lthumb 36.72 64.0016
rfemur -61.1462 -18.3607 6.03502
rtibia 85.4934
rfoot 7.44585 6.45919
rtoes -7.36204
lfemur -60.1594 16.829 -3.4889
ltibia 87.733
lfoot 3.30865 -17.2856
ltoes -4.59612
243
root 7.39868 9.20049 -21.7796 -32.0053 -2.33135 0.988381
lowerback 34.9694 2.24777 -1.55294
upperback 14.0245 2.36808 1.10685
thorax -2.35128 1.0559 1.20808
lowerneck -21.1475 -3.69546 -8.7247
upperneck 3.49047 -3.29782 6.88377
head 4.6497 -1.29267 3.24907
rclavicle -7.50412e-015 5.1684e-015
rhumerus 9.19746 30.5644 -78.837
rradius 60.7252
rwrist 10.7513
rhand 10.8371 11.323
rfingers 7.12502
rthumb 35.9199 -15.0131
lclavicle -7.50412e-015 5.1684e-015
lhumerus 13.7594 -35.3966 79.5608
lradius 55.3478
lwrist -42.267
lhand 12.8755 38.0582
lfingers 7.12502
lthumb 37.8483 63.8986
rfemur -60.8885 -18.6293 5.71344
rtibia 85.4316
rfoot 7.45113 6.60624
rtoes -7.83413
lfemur -59.9964 16.7965 -3.78466
ltibia 87.6909
lfoot 3.36588 -17.3374
ltoes -4.06442
244
root 7.40162 9.19606 -21.7827 -32.1681 -2.25665 0.985294
lowerback 34.8806 2.26169 -1.61312
upperback 14.0712 2.37249 1.1591
thorax -2.27464 1.05341 1.2956
lowerneck -21.0091 -3.77905 -8.88303
upperneck 3.49981 -3.38696 6.95047
head 4.64298 -1.33708 3.28704
rclavicle -8.64713e-015 -1.59028e-015
rhumerus 9.03789 30.4324 -78.8164
rradius 60.5878
rwrist 10.9926
rhand 11.4243 10.9906
rfingers 7.12502
rthumb 36.476 -15.2075
lclavicle -8.64713e-015 -1.59028e-015
lhumerus 13.7454 -35.7043 79.4357
lradius 55.1433
lwrist -42.4388
lhand 13.3558 38.3941
lfingers 7.12502
lthumb 38.3018 64.1106
rfemur -60.692 -18.7732 5.61858
rtibia 85.3727
rfoot 7.55806 6.7034
rtoes -7.92387
lfemur -59.9044 16.8674 -3.83771
ltibia 87.6967
lfoot 3.36517 -17.5386
ltoes -4.53116
245
root 7.40345 9.19798 -21.7926 -32.3152 -2.37761 0.786786
lowerback 34.8476 2.25163 -1.42739
upperback 14.0809 2.42366 1.23454
thorax -2.25257 1.08341 1.26116
lowerneck -20.6948 -3.74662 -8.97431
upperneck 3.22487 -3.3439 7.01379
head 4.50935 -1.31757 3.32784
rclavicle -4.72114e-015 -1.0138e-014
rhumerus 8.86335 30.323 -78.8395
rradius 60.4322
rwrist 11.2122
rhand 12.1679 10.4256
rfingers 7.12502
rthumb 37.1795 -15.5922
lclavicle -4.72114e-015 -1.0138e-014
lhumerus 13.7636 -36.1855 79.1261
lradius 55.1434
lwrist -42.3578
lhand 12.8602 38.9553
lfingers 7.12502
lthumb 37.8338 64.7996
rfemur -60.4519 -18.7984 5.84963
rtibia 85.2639
rfoot 7.56016 6.62935
rtoes -7.15589
lfemur -59.7398 17.0456 -3.5992
ltibia 87.6552
lfoot 3.23248 -17.7412
ltoes -5.70206
246
root 7.40594 9.20065 -21.804 -32.4624 -2.42305 0.614287
lowerback 34.9615 2.18414 -1.17407
upperback 14.0091 2.41736 1.20939
thorax -2.36041 1.09298 1.09998
lowerneck -20.1966 -3.72362 -8.99695
upperneck 2.80337 -3.35041 7.17278
head 4.30822 -1.31798 3.38411
rclavicle -2.37548e-014 2.98177e-015
rhumerus 8.61185 30.2887 -79.0111
rradius 60.2233
rwrist 11.2886
rhand 12.6678 9.87558
rfingers 7.12502
rthumb 37.6521 -16.0175
lclavicle -2.37548e-014 2.98177e-015
lhumerus 13.6782 -36.4636 78.9829
lradius 55.0471
lwrist -42.4316
lhand 11.437 39.5133
lfingers 7.12502
lthumb 36.488 65.7085
rfemur -60.2373 -19.0258 6.04808
rtibia 85.1787
rfoot 7.48529 6.70547
rtoes -6.53807
lfemur -59.5923 17.1641 -3.44574
ltibia 87.6006
lfoot 3.18001 -17.8779
ltoes -6.30807
247
root 7.40974 9.19805 -21.8099 -32.5906 -2.27695 0.654183
lowerback 34.9645 2.15333 -1.21239
upperback 14.0742 2.36747 1.20283
thorax -2.29041 1.06709 1.13065
lowerneck -20.1717 -3.80495 -9.08662
upperneck 2.6226 -3.4299 7.15544
head 4.25512 -1.35902 3.38518
rclavicle 1.82385e-014 -4.17448e-015
rhumerus 8.73447 30.3791 -78.8281
rradius 59.9457
rwrist 11.2469
rhand 12.5131 9.89068
rfingers 7.12502
rthumb 37.5058 -16.0413
lclavicle 1.82385e-014 -4.17448e-015
lhumerus 13.8545 -36.3796 79.0028
lradius 54.7521
lwrist -42.9319
lhand 11.3413 39.272
lfingers 7.12502
lthumb 36.3974 65.4899
rfemur -60.1214 -19.3679 5.93016
rtibia 85.1704
rfoot 7.59097 6.94343
rtoes -6.27837
lfemur -59.4901 17.2072 -3.62729
ltibia 87.5596
lfoot 3.16418 -18.0123
ltoes -5.90142
248
root 7.40956 9.19085 -21.8092 -32.7732 -2.18555 0.818736
lowerback 34.8165 2.27204 -1.57254
upperback 14.2734 2.41125 1.33217
thorax -2.04207 1.0657 1.44764
lowerneck -20.2763 -3.89803 -9.13608
upperneck 2.52289 -3.49553 6.78719
head 4.23521 -1.41286 3.26826
rclavicle 5.86415e-015 -1.59028e-015
rhumerus 9.07972 30.4166 -78.3332
rradius 59.6355
rwrist 11.5437
rhand 12.458 10.1962
rfingers 7.12502
rthumb 37.4538 -15.7496
lclavicle 5.86415e-015 -1.59028e-015
lhumerus 14.186 -36.3206 79.0407
lradius 54.4988
lwrist -43.3474
lhand 12.3374 39.1136
lfingers 7.12502
lthumb 37.3397 65.0895
rfemur -60.0045 -19.4608 5.69815
rtibia 85.2182
rfoot 7.66239 7.11149
rtoes -6.23099
lfemur -59.2935 17.3236 -3.80822
ltibia 87.5537
lfoot 3.18864 -18.1326
ltoes -5.77604
249
root 7.40796 9.17892 -21.8029 -32.9059 -2.17432 0.866662
lowerback 34.6478 2.36782 -1.78853
upperback 14.3815 2.4726 1.44176
thorax -1.88093 1.08033 1.66175
lowerneck -19.939 -3.88282 -9.13765
upperneck 2.18519 -3.47825 6.59967
head 4.07331 -1.41986 3.21292
rclavicle -2.95195e-014 -8.15017e-015
rhumerus 9.24343 30.3561 -78.0205
rradius 59.4113
rwrist 12.1772
rhand 13.036 10.2083
rfingers 7.12502
rthumb 37.9998 -15.5909
lclavicle -2.95195e-014 -8.15017e-015
lhumerus 14.2819 -36.4405 79.0187
lradius 54.3809
lwrist -43.4354
lhand 14.7689 39.403
lfingers 7.12502
lthumb 39.634 64.7384
rfemur -59.9767 -19.6553 5.66402
rtibia 85.2924
rfoot 7.68277 7.26276
rtoes -5.81246
lfemur -59.2028 17.4682 -3.80551
ltibia 87.5924
lfoot 3.21911 -18.2903
ltoes -6.20688
250
root 7.40911 9.1715 -21.8008 -32.9012 -2.23182 0.818878
lowerback 34.4962 2.38636 -1.73964
upperback 14.3711 2.51548 1.45426
thorax -1.84054 1.10373 1.63894
lowerneck -19.5207 -3.7998 -9.25075
upperneck 1.792 -3.38354 6.81358
head 3.88893 -1.36624 3.31146
rclavicle -1.03368e-014 -5.96354e-016
rhumerus 9.24546 30.3529 -77.8886
rradius 59.2902
rwrist 12.7199
rhand 13.1931 9.85966
rfingers 7.12502
rthumb 38.1482 -15.8991
lclavicle -1.03368e-014 -5.96354e-016
lhumerus 14.2736 -36.5767 78.9928
lradius 54.1055
lwrist -43.5572
lhand 18.1326 39.071
lfingers 7.12502
lthumb 42.7916 63.3901
rfemur -60.067 -19.9037 5.81913
rtibia 85.3279
rfoot 7.56124 7.32891
rtoes -6.08271
lfemur -59.2348 17.7008 -3.76445
ltibia 87.5881
lfoot 3.1622 -18.503
ltoes -5.86591
251
root 7.41198 9.17201 -21.8076 -32.8747 -2.34447 0.756531
lowerback 34.3979 2.35894 -1.52228
upperback 14.3056 2.5469 1.37336
thorax -1.86735 1.13393 1.43167
lowerneck -19.2562 -3.79207 -9.32213
upperneck 1.64379 -3.39386 7.0454
head 3.81178 -1.36234 3.39737
rclavicle 3.13086e-015 -3.57812e-015
rhumerus 9.11687 30.3602 -77.9458
rradius 59.19
rwrist 13.1641
rhand 13.4222 9.36571
rfingers 7.12502
rthumb 38.3645 -16.3334
lclavicle 3.13086e-015 -3.57812e-015
lhumerus 14.2641 -36.7848 78.8951
lradius 53.7538
lwrist -43.8006
lhand 19.4013 38.4247
lfingers 7.12502
lthumb 43.977 62.3162
rfemur -60.1169 -19.889 5.98144
rtibia 85.3145
rfoot 7.42997 7.30089
rtoes -6.90707
lfemur -59.2371 17.9877 -3.73048
ltibia 87.5161
lfoot 3.04267 -18.8208
ltoes -6.64376
252
root 7.41378 9.17199 -21.8128 -32.9088 -2.35982 0.759363
lowerback 34.3606 2.33533 -1.41878
upperback 14.2026 2.54685 1.28706
thorax -1.95797 1.14387 1.28621
lowerneck -19.1362 -3.87711 -9.75827
upperneck 1.84351 -3.46759 7.59291
head 3.88327 -1.37502 3.63477
rclavicle 4.07509e-015 -2.5842e-015
rhumerus 8.81668 30.2577 -78.1791
rradius 58.9975
rwrist 13.7382
rhand 14.2795 9.23875
rfingers 7.12502
rthumb 39.173 -16.2315
lclavicle 4.07509e-015 -2.5842e-015
lhumerus 14.1043 -37.0044 78.8339
lradius 53.4749
lwrist -43.9958
lhand 16.2499 39.6937
lfingers 7.12502
lthumb 41.0269 64.6016
rfemur -60.0951 -19.9059 5.98957
rtibia 85.3004
rfoot 7.37356 7.45022
rtoes -7.24686
lfemur -59.1973 18.1926 -3.77914
ltibia 87.4529
lfoot 3.01742 -19.1019
ltoes -8.0509
253
root 7.41195 9.17025 -21.8125 -32.9664 -2.35353 0.924248
lowerback 34.3219 2.41085 -1.62293
upperback 14.1386 2.57841 1.27847
thorax -2.02091 1.1515 1.37401
lowerneck -19.1438 -3.88632 -10.331
upperneck 2.10832 -3.38988 8.00394
head 3.9793 -1.32055 3.86508
rclavicle 9.49197e-015 -8.94531e-015
rhumerus 8.56252 30.2871 -78.2026
rradius 58.8002
rwrist 14.1574
rhand 14.9268 9.44691
rfingers 7.12502
rthumb 39.7827 -15.8443
lclavicle 9.49197e-015 -8.94531e-015
lhumerus 13.9909 -37.1183 78.8808
lradius 53.141
lwrist -44.0094
lhand 21.1537 37.8633
lfingers 7.12502
lthumb 45.6083 61.1192
rfemur -60.1116 -19.9783 5.86863
rtibia 85.3018
rfoot 7.30822 7.58544
rtoes -6.97823
lfemur -59.1235 18.4043 -3.91769
ltibia 87.4546
lfoot 3.21845 -18.7044
ltoes -6.92229
254
root 7.40975 9.16654 -21.8106 -33.031 -2.45208 0.969024
lowerback 34.2539 2.43942 -1.59592
upperback 14.1436 2.62087 1.23219
thorax -1.98971 1.17557 1.3001
lowerneck -18.8857 -3.78703 -10.0567
upperneck 1.93238 -3.30885 7.61538
head 3.86448 -1.30416 3.70585
rclavicle -1.46604e-014 8.74653e-015
rhumerus 8.40219 30.3423 -78.2094
rradius 58.7027
rwrist 14.6111
rhand 15.0064 9.92473
rfingers 7.12502
rthumb 39.8577 -15.3441
lclavicle -1.46604e-014 8.74653e-015
lhumerus 14.085 -37.2808 78.7848
lradius 52.806
lwrist -43.8768
lhand 21.0231 37.8168
lfingers 7.12502
lthumb 45.487 61.1219
rfemur -60.1269 -20.0011 5.92739
rtibia 85.3236
rfoot 7.43574 7.61468
rtoes -6.18596
lfemur -59.0838 18.6474 -3.85456
ltibia 87.5168
lfoot 3.49055 -18.3678
ltoes -3.80385
